<svg width="640" height="123" viewBox="0 0 640 123" fill="none" xmlns="http://www.w3.org/2000/svg">
<path d="M19.32 120.68H-1.57952e-06V40.88C-1.57952e-06 27.6266 3.68667 17.5 11.06 10.5C18.5267 3.49997 30.0533 0.233302 45.64 0.699969V18.06C36.4933 17.78 29.82 19.5066 25.62 23.24C21.42 26.88 19.32 32.2466 19.32 39.34V41.3H42.84V58.94H19.32V120.68ZM84.492 121.1C76.652 121.1 70.3053 119.98 65.452 117.74C60.692 115.5 57.1453 111.907 54.812 106.96C52.572 101.92 51.452 95.1533 51.452 86.66V2.79997H70.772V88.2C70.772 93.8 71.8453 97.7666 73.992 100.1C76.232 102.433 79.732 103.507 84.492 103.32V121.1ZM128.48 122.5C120.92 122.5 114.154 120.727 108.18 117.18C102.3 113.633 97.6802 108.733 94.3202 102.48C90.9602 96.1333 89.2802 88.9933 89.2802 81.06C89.2802 73.1266 90.9602 66.0333 94.3202 59.78C97.6802 53.4333 102.3 48.4866 108.18 44.94C114.154 41.3933 120.92 39.62 128.48 39.62C136.04 39.62 142.76 41.3933 148.64 44.94C154.614 48.4866 159.28 53.4333 162.64 59.78C166 66.0333 167.68 73.1266 167.68 81.06C167.68 88.9933 166 96.1333 162.64 102.48C159.28 108.733 154.614 113.633 148.64 117.18C142.76 120.727 136.04 122.5 128.48 122.5ZM128.48 105C134.174 105 138.84 102.76 142.48 98.28C146.214 93.8 148.08 88.06 148.08 81.06C148.08 73.9666 146.26 68.2266 142.62 63.84C138.98 59.36 134.267 57.12 128.48 57.12C122.694 57.12 117.98 59.36 114.34 63.84C110.7 68.2266 108.88 73.9666 108.88 81.06C108.88 88.06 110.7 93.8 114.34 98.28C118.074 102.76 122.787 105 128.48 105ZM232.478 72.66L218.618 120.68H197.758L171.018 41.3H190.758L208.818 98.98L224.638 41.3H240.318L256.138 98.98L274.198 41.3H293.938L267.198 120.68H246.338L232.478 72.66ZM321.121 47.32V120.68H301.801V10.08H324.761L359.481 86.38L394.621 10.08H417.441V120.68H397.561V47.32L363.261 120.68H355.141L321.121 47.32ZM473.99 122.64C458.87 122.64 447.483 118.907 439.83 111.44C432.176 103.973 428.35 93.8466 428.35 81.06C428.35 72.7533 429.936 65.4266 433.11 59.08C436.376 52.64 440.95 47.6466 446.83 44.1C452.803 40.46 459.616 38.64 467.27 38.64C475.016 38.64 481.783 40.4133 487.57 43.96C493.45 47.5066 497.976 52.5 501.15 58.94C504.323 65.2866 505.91 72.66 505.91 81.06V88.9H449.07C451.123 100.287 460.036 105.98 475.81 105.98C482.81 105.98 489.81 104.907 496.81 102.76V119.14C490.276 121.473 482.67 122.64 473.99 122.64ZM485.61 72.52C485.05 67.48 483.09 63.4666 479.73 60.48C476.37 57.4 472.216 55.86 467.27 55.86C462.323 55.86 458.17 57.4 454.81 60.48C451.45 63.56 449.536 67.5733 449.07 72.52H485.61ZM558.254 122.64C543.134 122.64 531.747 118.907 524.094 111.44C516.441 103.973 512.614 93.8466 512.614 81.06C512.614 72.7533 514.201 65.4266 517.374 59.08C520.641 52.64 525.214 47.6466 531.094 44.1C537.067 40.46 543.881 38.64 551.534 38.64C559.281 38.64 566.047 40.4133 571.834 43.96C577.714 47.5066 582.241 52.5 585.414 58.94C588.587 65.2866 590.174 72.66 590.174 81.06V88.9H533.334C535.387 100.287 544.301 105.98 560.074 105.98C567.074 105.98 574.074 104.907 581.074 102.76V119.14C574.541 121.473 566.934 122.64 558.254 122.64ZM569.874 72.52C569.314 67.48 567.354 63.4666 563.994 60.48C560.634 57.4 556.481 55.86 551.534 55.86C546.587 55.86 542.434 57.4 539.074 60.48C535.714 63.56 533.801 67.5733 533.334 72.52H569.874ZM639.784 120.68C628.958 120.68 620.464 119.093 614.304 115.92C608.238 112.747 603.944 108.033 601.424 101.78C598.904 95.4333 597.644 87.08 597.644 76.72V20.3H616.964V41.3H639.784V58.94H616.964V78.54C616.964 84.2333 617.618 88.9 618.924 92.54C620.231 96.0866 622.518 98.7933 625.784 100.66C629.144 102.527 633.811 103.413 639.784 103.32V120.68Z" fill="url(#paint0_linear_16998_92320)"/>
<defs>
<linearGradient id="paint0_linear_16998_92320" x1="-9.1" y1="-13.9" x2="188.4" y2="65.1" gradientUnits="userSpaceOnUse">
<stop stop-color="white"/>
<stop offset="1" stop-color="#04E6A2"/>
</linearGradient>
</defs>
</svg>
