<svg width="538" height="131" viewBox="0 0 538 131" fill="none" xmlns="http://www.w3.org/2000/svg">
<path d="M106.724 0.00386483C107.054 0.00514933 107.384 0.00396767 107.714 0.00191171C109.518 0.018948 109.519 0.0187348 110.303 0.750935C111.366 2.10711 110.776 4.55897 110.583 6.18355C110.411 7.50164 110.152 8.804 109.885 10.1054C109.819 10.4271 109.759 10.7503 109.701 11.0732C108.497 17.4188 105.538 23.7418 101.557 28.8007C101.432 28.9606 101.307 29.1214 101.179 29.2861C99.1989 31.7571 96.9832 34.1369 94.4627 36.0615C94.3489 36.1487 94.2342 36.2353 94.117 36.3252C92.424 37.6152 90.7152 38.8247 88.8524 39.8564C88.7398 39.919 88.6265 39.9813 88.5106 40.0459C86.9559 40.9044 85.3867 41.67 83.7371 42.331C83.4737 42.4371 83.4735 42.4377 83.2049 42.5459C81.0467 43.3949 78.8843 44.081 76.6219 44.5898C76.3165 44.6627 76.316 44.662 76.0047 44.7363C72.5062 45.5306 68.9562 45.5323 65.3865 45.5361C64.7221 45.537 64.0577 45.5433 63.3934 45.5507C62.8768 45.5556 62.3602 45.5574 61.8436 45.5576C61.5985 45.5583 61.3533 45.56 61.1082 45.5634C60.7678 45.5679 60.4272 45.5675 60.0867 45.5654C59.7974 45.5666 59.797 45.5661 59.5018 45.5673C58.8337 45.4356 58.5889 45.1592 58.1629 44.6406C57.6541 43.2384 58.2405 41.7962 58.8328 40.5263C59.857 38.5192 61.2651 37.3213 63.2772 36.3906C64.0489 36.1849 64.8313 36.1823 65.6248 36.1552C65.9311 36.1431 66.2375 36.1304 66.5438 36.1181C67.0207 36.0996 67.4984 36.082 67.9754 36.0654C70.7295 35.9676 73.4465 35.7455 76.0955 34.9375C76.2391 34.8948 76.3832 34.8515 76.5311 34.8076C78.8279 34.1128 80.9558 33.2187 83.078 32.1015C83.2426 32.0165 83.4073 31.9313 83.577 31.8437C86.8232 30.1298 89.9896 27.6985 92.3172 24.8408C92.4638 24.667 92.611 24.493 92.7576 24.3193C96.1178 20.2876 98.521 15.4679 99.6795 10.3398C99.7226 10.1502 99.766 9.95991 99.8104 9.76461C99.8424 9.62182 99.874 9.47812 99.9071 9.33101C98.3537 9.34508 96.8003 9.3612 95.2469 9.37886C94.5251 9.38702 93.8027 9.39398 93.0809 9.40035C88.3242 9.44288 83.6966 9.5243 79.117 10.9814C79.0108 11.0151 78.9042 11.0483 78.7948 11.083C73.7955 12.6925 69.5346 15.4586 65.7528 19.0664C65.6122 19.1982 65.4708 19.33 65.326 19.4658C61.9313 22.7376 59.5642 26.8904 57.9539 31.2793C57.8735 31.4954 57.7913 31.7121 57.7069 31.9267C57.3771 32.7717 57.1366 33.6224 56.9246 34.5039C56.8917 34.6312 56.8589 34.7594 56.825 34.8906C55.9372 38.5638 55.8908 42.3257 55.8621 46.083C55.857 46.6928 55.846 47.3025 55.8289 47.9121C55.808 48.6599 55.7974 49.4081 55.7948 50.1562C55.7921 50.4374 55.7854 50.719 55.7752 51C55.692 52.4949 55.6929 52.4953 56.2293 53.8447C56.8053 54.4521 57.4686 54.9047 58.1629 55.3662C58.3755 55.5473 58.5859 55.7318 58.7889 55.9238C58.8711 55.9995 58.9533 56.0762 59.0379 56.1543C59.1557 56.2644 59.1562 56.2647 59.2762 56.3769C59.4085 56.5002 59.409 56.5003 59.5438 56.6259C59.7991 56.8649 60.0538 57.105 60.3074 57.3457C60.5115 57.5392 60.5117 57.5401 60.7196 57.7373C61.8031 58.7925 62.9479 59.9309 63.6073 61.3056C63.7899 61.3049 63.9728 61.3045 64.161 61.3037C68.6061 61.2854 73.0517 61.2722 77.4969 61.2636C79.6465 61.2594 81.7965 61.2535 83.9461 61.2441C85.8194 61.2359 87.6929 61.2303 89.5662 61.2285C90.5583 61.2274 91.5507 61.2247 92.5428 61.2187C93.4763 61.2131 94.41 61.2116 95.3436 61.2128C95.6863 61.2126 96.0292 61.2111 96.3719 61.208C96.8398 61.2039 97.3074 61.2047 97.7752 61.207C97.911 61.2046 98.0474 61.2017 98.1873 61.1992C98.8664 61.208 99.2866 61.2704 99.824 61.7041C100.531 62.4346 100.459 63.0169 100.447 64.0048C100.291 66.118 99.3059 67.7527 97.8035 69.205C96.1973 70.4733 94.5123 70.6653 92.535 70.6396C92.2811 70.6394 92.0271 70.6391 91.7733 70.6396C91.0903 70.6398 90.4074 70.6356 89.7244 70.6298C89.0084 70.6247 88.292 70.624 87.576 70.623C86.2227 70.6205 84.8688 70.6137 83.5155 70.6054C81.9738 70.5962 80.4321 70.592 78.8905 70.5878C75.7213 70.5792 72.5518 70.5643 69.3826 70.5459C69.4278 70.6348 69.4729 70.7247 69.5194 70.8164C69.5786 70.9339 69.638 71.0517 69.699 71.1728C69.7578 71.289 69.8172 71.4056 69.8778 71.5253C70.2837 72.3642 70.5533 73.2625 70.8465 74.1455C70.8824 74.2533 70.9189 74.3615 70.9559 74.4726C71.6943 76.7056 72.2595 78.9567 72.6824 81.2714C72.726 81.5017 72.7259 81.5024 72.7703 81.7373C73.1914 84.0594 73.2238 86.3846 73.2293 88.7373C73.2303 88.9547 73.2303 88.9553 73.2313 89.1767C73.2376 92.0819 73.0251 94.9359 72.4139 97.7812C72.3717 97.9808 72.3304 98.1811 72.2869 98.3867C71.9726 99.8261 71.6013 101.245 71.1873 102.659C71.1353 102.838 71.0828 103.016 71.0291 103.2C70.6783 104.354 70.228 105.427 69.7127 106.516C69.6079 106.754 69.5036 106.993 69.4012 107.232C67.3624 111.956 64.6446 115.991 61.2977 119.881C61.204 119.993 61.11 120.106 61.0135 120.222C59.4092 122.121 57.6042 123.796 55.6209 125.288C55.2159 125.6 54.8288 125.934 54.4393 126.265C53.6334 126.93 52.7773 127.47 51.8817 128.003C51.4999 128.234 51.1443 128.471 50.7889 128.739C49.6812 129.541 48.6797 130.041 47.2938 130.023C46.8587 129.928 46.7191 129.8 46.4471 129.451C46.1025 128.892 46.0765 128.454 46.077 127.803C46.0763 127.599 46.0757 127.395 46.075 127.186C46.076 126.959 46.077 126.733 46.078 126.507C46.0778 126.267 46.0774 126.026 46.077 125.786C46.0762 125.126 46.0773 124.465 46.0789 123.805C46.0804 123.093 46.0802 122.38 46.0799 121.668C46.0797 120.434 46.081 119.199 46.0828 117.965C46.0855 116.181 46.0863 114.396 46.0867 112.612C46.0875 109.717 46.0895 106.822 46.0926 103.927C46.0956 101.114 46.098 98.3016 46.0994 95.4892C46.0995 95.3161 46.0993 95.1422 46.0994 94.9638C46.0999 94.0946 46.1 93.2246 46.1004 92.3554C46.1038 85.1408 46.1096 77.9255 46.117 70.7109C45.9613 70.7116 45.9607 70.7122 45.8016 70.7128C43.2532 70.7238 40.7045 70.7312 38.1561 70.7363C36.9237 70.7388 35.6912 70.7423 34.4588 70.748C33.383 70.753 32.3071 70.7567 31.2313 70.7578C30.6631 70.7584 30.0944 70.76 29.5262 70.7636C26.3003 70.782 23.2221 70.6355 20.1092 69.7314C19.9649 69.692 19.8204 69.6529 19.6717 69.6123C17.8209 69.0927 16.1389 68.2908 14.4373 67.4111C14.2021 67.2913 14.2018 67.2912 13.9617 67.1689C7.65871 63.8611 3.10065 58.0378 0.960766 51.3037C0.523667 49.882 0.166061 48.4397 0.0828361 46.9511C0.0683882 46.7531 0.053776 46.5546 0.0388908 46.3505C-0.0426269 44.4608 -0.0428833 44.46 0.515453 43.7646C1.08607 43.1896 1.80523 43.0114 2.59748 42.9492C2.88911 42.9487 2.8898 42.9487 3.18733 42.9482C3.29625 42.9476 3.40519 42.9469 3.51741 42.9462C3.88092 42.9446 4.24471 42.9446 4.60823 42.9453C4.86984 42.9446 5.13177 42.9443 5.39338 42.9433C6.10399 42.9411 6.81461 42.9409 7.52522 42.9414C8.12221 42.9415 8.71924 42.9402 9.31623 42.9394C10.7302 42.9376 12.1444 42.9384 13.5584 42.9394C15.004 42.9404 16.4498 42.9381 17.8953 42.9345C19.1444 42.9316 20.3934 42.9301 21.6424 42.9306C22.3845 42.9309 23.1269 42.931 23.869 42.9287C28.5841 42.9151 33.2453 43.0139 37.8358 44.2168C38.3324 44.3461 38.8324 44.4612 39.3319 44.5791C39.9604 44.7396 40.5624 44.9299 41.1649 45.1699C41.537 45.317 41.914 45.447 42.2918 45.5791C43.1892 45.9036 44.0659 46.2722 44.9442 46.6445C45.0888 46.7056 45.2336 46.7671 45.3826 46.83C45.7374 46.98 46.0925 47.1309 46.4471 47.2812C46.4467 47.1893 46.4465 47.0966 46.4461 47.0019C46.4424 46.033 46.4401 45.0636 46.4383 44.0947C46.4375 43.7345 46.4368 43.3738 46.4354 43.0136C46.4252 40.4104 46.4585 37.8707 46.9012 35.2978C46.9304 35.1279 46.96 34.9572 46.9901 34.7822C47.7082 30.7271 48.9339 26.8195 50.9022 23.1914C50.9967 23.0082 51.0919 22.8244 51.1893 22.6357C52.9685 19.2247 55.2519 16.1273 57.9305 13.374C58.2489 13.0335 58.5314 12.6649 58.8221 12.3007C59.0125 12.1197 59.2089 11.9443 59.41 11.7753C59.7889 11.4532 60.1605 11.1285 60.5213 10.7861C63.2313 8.21923 66.4011 6.21513 69.6922 4.48433C69.849 4.40185 70.0063 4.31931 70.1678 4.23433C71.1516 3.72632 72.1449 3.29391 73.1776 2.89644C73.4513 2.78334 73.7251 2.66977 73.9989 2.5566C74.8279 2.22535 75.6696 1.96964 76.5291 1.73043C76.6689 1.69036 76.809 1.65061 76.953 1.60933C81.4556 0.337821 85.8929 -0.0139861 90.5399 0.00191171C91.199 0.00361958 91.8583 0.00293802 92.5174 0.00191171C93.6186 0.000725345 94.7199 0.00166468 95.8211 0.0048414C97.0915 0.00846427 98.3622 0.00746963 99.6326 0.00386483C100.733 0.000869629 101.833 0.000183556 102.933 0.00191171C103.586 0.00293538 104.239 0.00312537 104.892 0.000935146C105.503 -0.000972416 106.114 5.50414e-05 106.724 0.00386483ZM37.5262 53.9238C32.995 52.2693 32.9944 52.2701 21.8319 52.3476C20.771 52.3552 19.7101 52.3589 18.6492 52.3623C16.3654 52.3694 14.0815 52.382 11.7977 52.3974V52.7265H12.1278V53.0566C14.0958 56.2539 17.3693 58.7531 20.8358 60.1269C20.9675 60.1774 21.0956 60.2263 21.2235 60.2753C24.1682 61.4362 27.1985 61.5653 30.327 61.5517C30.8936 61.5489 31.4605 61.5499 32.0272 61.5517C33.4696 61.5567 34.9119 61.5563 36.3543 61.5546C37.9309 61.5528 39.5082 61.5509 41.0848 61.5556C41.6567 61.5576 42.2287 61.5605 42.8006 61.5586C43.3424 61.5559 43.8848 61.5544 44.4266 61.5556C44.6318 61.5563 44.8309 61.5569 45.0301 61.5576C46.6695 61.541 48.1389 61.7242 49.5223 62.6757C49.6934 62.8134 49.8601 62.9474 50.0262 63.081C50.7272 63.6444 51.4101 64.2205 52.0291 64.874C52.1509 65.0076 52.2694 65.1369 52.3875 65.2666C52.6637 65.5602 52.9391 65.8545 53.2108 66.1523C53.3096 66.2614 53.4059 66.3677 53.5018 66.4736C54.7032 67.7537 55.2602 69.1473 55.2821 70.9101C55.2807 71.0758 55.2794 71.2366 55.2781 71.3974C55.2821 71.9582 55.2851 72.5192 55.284 73.08C55.2831 73.4898 55.2836 73.8998 55.285 74.3095C55.2897 75.3105 55.2928 76.3115 55.2928 77.3125C55.2925 78.6164 55.2945 79.9206 55.2987 81.2246C55.3055 83.3391 55.3103 85.4538 55.3123 87.5683C55.3143 89.6278 55.317 91.6875 55.3221 93.747C55.3224 93.8782 55.3228 94.0064 55.3231 94.1337C55.3247 94.7731 55.3263 95.4124 55.328 96.0517C55.3417 101.374 55.3513 106.698 55.3573 112.02C55.3574 112.113 55.3572 112.202 55.3573 112.292H55.5223C61.1651 106.046 63.7565 96.9821 63.8114 88.7568C63.812 88.6349 63.8136 88.5158 63.8143 88.3974C63.8336 86.043 63.6338 83.7834 63.1121 81.4804C63.0703 81.3045 63.0297 81.1336 62.9891 80.9628C61.7412 75.6717 59.5007 70.6913 56.0125 66.4834C55.9021 66.3502 55.7945 66.221 55.6873 66.0918C52.1788 61.5253 47.2433 58.1547 42.1092 55.6679C41.9673 55.5994 41.9668 55.5993 41.828 55.5322C40.7688 55.0143 39.6779 54.6294 38.5555 54.2705C38.2103 54.1601 37.8673 54.0464 37.5262 53.9238ZM97.0194 62.7002C95.6527 62.7003 94.545 63.8091 94.5448 65.1757C94.5448 66.5425 95.6526 67.6502 97.0194 67.6503C98.3862 67.6503 99.4949 66.5426 99.4949 65.1757C99.4947 63.809 98.3861 62.7002 97.0194 62.7002Z" fill="#01EBA3"/>
<path d="M97.0201 56.926C101.576 56.926 105.27 60.6197 105.27 65.176C105.27 69.7324 101.576 73.426 97.0201 73.426C92.4638 73.426 88.7701 69.7324 88.7701 65.176C88.7701 60.6197 92.4638 56.926 97.0201 56.926ZM97.0201 62.7014C95.6533 62.7015 94.5456 63.8092 94.5455 65.176C94.5455 66.5429 95.6533 67.6506 97.0201 67.6506C98.387 67.6506 99.4948 66.5429 99.4948 65.176C99.4947 63.8091 98.387 62.7014 97.0201 62.7014Z" fill="#01EBA3"/>
<path d="M138.189 107.691H125.824V56.6192C125.824 48.1371 128.183 41.656 132.902 37.176C137.681 32.696 145.058 30.6053 155.034 30.904V42.0144C149.18 41.8352 144.909 42.9403 142.221 45.3296C139.533 47.6592 138.189 51.0939 138.189 55.6336V56.888H153.242V68.1776H138.189V107.691ZM179.899 107.96C174.881 107.96 170.819 107.243 167.713 105.81C164.667 104.376 162.397 102.076 160.904 98.9104C159.47 95.6848 158.753 91.3541 158.753 85.9184V32.248H171.118V86.904C171.118 90.488 171.805 93.0267 173.179 94.52C174.612 96.0133 176.852 96.7003 179.899 96.5808V107.96ZM208.051 108.856C203.213 108.856 198.882 107.721 195.059 105.451C191.296 103.181 188.339 100.045 186.189 96.0432C184.039 91.9813 182.963 87.4117 182.963 82.3344C182.963 77.2571 184.039 72.7173 186.189 68.7152C188.339 64.6533 191.296 61.4875 195.059 59.2176C198.882 56.9477 203.213 55.8128 208.051 55.8128C212.89 55.8128 217.191 56.9477 220.954 59.2176C224.777 61.4875 227.763 64.6533 229.914 68.7152C232.064 72.7173 233.139 77.2571 233.139 82.3344C233.139 87.4117 232.064 91.9813 229.914 96.0432C227.763 100.045 224.777 103.181 220.954 105.451C217.191 107.721 212.89 108.856 208.051 108.856ZM208.051 97.656C211.695 97.656 214.682 96.2224 217.011 93.3552C219.401 90.488 220.595 86.8144 220.595 82.3344C220.595 77.7947 219.431 74.1211 217.101 71.3136C214.771 68.4464 211.755 67.0128 208.051 67.0128C204.348 67.0128 201.331 68.4464 199.002 71.3136C196.672 74.1211 195.507 77.7947 195.507 82.3344C195.507 86.8144 196.672 90.488 199.002 93.3552C201.391 96.2224 204.408 97.656 208.051 97.656ZM274.61 76.9584L265.74 107.691H252.389L235.276 56.888H247.909L259.468 93.8032L269.592 56.888H279.628L289.752 93.8032L301.311 56.888H313.944L296.831 107.691H283.48L274.61 76.9584ZM331.341 60.7408V107.691H318.977V36.9072H333.671L355.892 85.7392L378.381 36.9072H392.986V107.691H380.263V60.7408L358.311 107.691H353.114L331.341 60.7408ZM429.177 108.946C419.501 108.946 412.213 106.556 407.315 101.778C402.417 96.9989 399.968 90.5179 399.968 82.3344C399.968 77.0181 400.983 72.3291 403.014 68.2672C405.105 64.1456 408.032 60.9499 411.795 58.68C415.618 56.3504 419.978 55.1856 424.877 55.1856C429.834 55.1856 434.165 56.3205 437.869 58.5904C441.632 60.8603 444.529 64.056 446.56 68.1776C448.591 72.2395 449.606 76.9584 449.606 82.3344V87.352H413.229C414.543 94.6395 420.247 98.2832 430.342 98.2832C434.822 98.2832 439.302 97.5963 443.782 96.2224V106.706C439.601 108.199 434.733 108.946 429.177 108.946ZM436.614 76.8688C436.256 73.6432 435.001 71.0747 432.851 69.1632C430.701 67.192 428.042 66.2064 424.877 66.2064C421.711 66.2064 419.053 67.192 416.902 69.1632C414.752 71.1344 413.527 73.7029 413.229 76.8688H436.614ZM483.107 108.946C473.43 108.946 466.142 106.556 461.244 101.778C456.346 96.9989 453.897 90.5179 453.897 82.3344C453.897 77.0181 454.913 72.3291 456.943 68.2672C459.034 64.1456 461.961 60.9499 465.724 58.68C469.547 56.3504 473.908 55.1856 478.806 55.1856C483.764 55.1856 488.094 56.3205 491.798 58.5904C495.561 60.8603 498.458 64.056 500.489 68.1776C502.52 72.2395 503.535 76.9584 503.535 82.3344V87.352H467.158C468.472 94.6395 474.177 98.2832 484.271 98.2832C488.751 98.2832 493.231 97.5963 497.711 96.2224V106.706C493.53 108.199 488.662 108.946 483.107 108.946ZM490.543 76.8688C490.185 73.6432 488.931 71.0747 486.78 69.1632C484.63 67.192 481.972 66.2064 478.806 66.2064C475.64 66.2064 472.982 67.192 470.831 69.1632C468.681 71.1344 467.457 73.7029 467.158 76.8688H490.543ZM535.286 107.691C528.357 107.691 522.921 106.676 518.979 104.645C515.096 102.614 512.348 99.5973 510.736 95.5952C509.123 91.5333 508.316 86.1872 508.316 79.5568V43.448H520.681V56.888H535.286V68.1776H520.681V80.7216C520.681 84.3653 521.099 87.352 521.936 89.6816C522.772 91.9515 524.235 93.6837 526.326 94.8784C528.476 96.0731 531.463 96.6405 535.286 96.5808V107.691Z" fill="#01EBA3"/>
</svg>
