<svg width="300" height="300" viewBox="0 0 300 300" fill="none" xmlns="http://www.w3.org/2000/svg">
<rect width="300" height="300" rx="150" fill="#04E6A2"/>
<path d="M213.712 67.0059C214.159 67.0076 214.606 67.0047 215.053 67.002C217.5 67.025 217.5 67.0252 218.562 68.0166C220.004 69.8525 219.205 73.1702 218.943 75.3691C218.71 77.1536 218.359 78.9169 217.996 80.6787C217.908 81.114 217.826 81.5512 217.747 81.9883C216.115 90.5779 212.103 99.1374 206.705 105.985C206.536 106.202 206.366 106.419 206.191 106.642C203.507 109.986 200.503 113.207 197.085 115.812C196.931 115.93 196.776 116.049 196.617 116.171C194.322 117.917 192.004 119.554 189.479 120.95C189.326 121.035 189.172 121.12 189.015 121.207C186.907 122.369 184.78 123.405 182.543 124.3C182.186 124.443 182.184 124.444 181.819 124.591C178.893 125.74 175.962 126.669 172.895 127.357C172.48 127.456 172.479 127.456 172.057 127.557C167.313 128.632 162.5 128.634 157.66 128.639C156.759 128.64 155.859 128.649 154.958 128.659C154.258 128.666 153.556 128.667 152.855 128.667C152.523 128.668 152.191 128.671 151.858 128.676C151.397 128.682 150.935 128.681 150.474 128.678C150.081 128.679 150.081 128.68 149.681 128.682C148.775 128.503 148.442 128.129 147.864 127.427C147.174 125.529 147.97 123.576 148.773 121.857C150.162 119.14 152.072 117.52 154.8 116.26C155.846 115.981 156.907 115.977 157.983 115.94C158.399 115.924 158.814 115.907 159.229 115.891C159.876 115.866 160.523 115.841 161.17 115.818C164.904 115.686 168.589 115.385 172.181 114.291C172.375 114.233 172.571 114.176 172.771 114.116C175.886 113.176 178.77 111.964 181.647 110.452C181.871 110.337 182.095 110.222 182.325 110.104C186.727 107.784 191.021 104.493 194.177 100.625C194.376 100.39 194.575 100.154 194.773 99.9189C199.33 94.4615 202.588 87.9368 204.159 80.9951C204.218 80.7384 204.276 80.4812 204.336 80.2168C204.379 80.0235 204.423 79.8291 204.468 79.6299C202.361 79.6489 200.254 79.6704 198.147 79.6943C197.169 79.7054 196.19 79.716 195.212 79.7246C188.762 79.7822 182.488 79.8918 176.278 81.8643C176.134 81.9099 175.989 81.9549 175.841 82.002C169.062 84.1806 163.284 87.9241 158.156 92.8076C157.966 92.986 157.774 93.1648 157.578 93.3486C152.975 97.7778 149.765 103.4 147.582 109.341C147.473 109.633 147.361 109.925 147.246 110.216C146.799 111.36 146.474 112.512 146.187 113.705C146.142 113.878 146.097 114.051 146.051 114.229C144.847 119.201 144.785 124.293 144.746 129.379C144.739 130.205 144.723 131.03 144.7 131.855C144.672 132.868 144.658 133.88 144.654 134.893C144.651 135.273 144.642 135.655 144.628 136.035C144.515 138.058 144.516 138.059 145.243 139.886C146.024 140.708 146.923 141.321 147.864 141.945C148.153 142.191 148.438 142.44 148.714 142.7C148.825 142.803 148.937 142.906 149.052 143.012C149.211 143.161 149.212 143.16 149.375 143.312C149.554 143.479 149.554 143.48 149.737 143.65C150.084 143.974 150.429 144.299 150.773 144.625C151.05 144.887 151.05 144.887 151.332 145.154C152.801 146.583 154.354 148.124 155.248 149.985C155.496 149.984 155.744 149.983 155.999 149.982C162.026 149.958 168.054 149.939 174.081 149.928C176.996 149.922 179.911 149.914 182.825 149.901C185.365 149.89 187.905 149.882 190.445 149.88C191.791 149.878 193.136 149.875 194.481 149.867C195.747 149.86 197.013 149.858 198.279 149.859C198.744 149.859 199.209 149.857 199.674 149.853C200.308 149.847 200.943 149.849 201.577 149.852C201.761 149.848 201.945 149.844 202.135 149.841C203.056 149.853 203.626 149.937 204.354 150.524C205.313 151.513 205.215 152.301 205.199 153.639C204.987 156.499 203.652 158.713 201.615 160.679C199.437 162.395 197.152 162.655 194.471 162.62C194.127 162.62 193.782 162.619 193.438 162.62C192.512 162.62 191.586 162.614 190.66 162.606C189.689 162.599 188.718 162.599 187.747 162.598C185.912 162.594 184.077 162.584 182.242 162.573C180.152 162.561 178.06 162.554 175.97 162.549C171.673 162.537 167.375 162.518 163.078 162.493C163.139 162.614 163.201 162.734 163.264 162.858C163.344 163.018 163.425 163.177 163.508 163.341C163.587 163.498 163.667 163.656 163.749 163.818C164.299 164.954 164.666 166.17 165.063 167.365C165.112 167.511 165.162 167.657 165.212 167.808C166.213 170.83 166.979 173.877 167.553 177.011C167.612 177.323 167.612 177.323 167.672 177.642C168.243 180.785 168.286 183.932 168.294 187.117C168.295 187.411 168.295 187.412 168.296 187.712C168.304 191.644 168.018 195.508 167.189 199.359C167.132 199.63 167.075 199.9 167.016 200.179C166.589 202.127 166.087 204.048 165.525 205.962C165.455 206.204 165.383 206.446 165.311 206.695C164.835 208.257 164.224 209.71 163.525 211.184C163.383 211.506 163.242 211.83 163.104 212.153C160.339 218.547 156.654 224.009 152.115 229.274C151.988 229.427 151.861 229.58 151.73 229.736C149.555 232.308 147.107 234.573 144.418 236.594C143.869 237.016 143.344 237.467 142.816 237.915C141.724 238.816 140.562 239.547 139.348 240.269C138.83 240.582 138.349 240.902 137.867 241.266C136.365 242.351 135.006 243.028 133.127 243.004C132.537 242.874 132.348 242.701 131.979 242.229C131.512 241.472 131.477 240.88 131.478 239.998C131.477 239.723 131.476 239.446 131.475 239.162C131.476 238.856 131.477 238.549 131.479 238.243C131.478 237.918 131.478 237.592 131.478 237.268C131.477 236.374 131.478 235.479 131.48 234.585C131.482 233.621 131.482 232.656 131.481 231.692C131.481 230.022 131.483 228.351 131.485 226.681C131.489 224.265 131.49 221.85 131.49 219.435C131.491 215.516 131.495 211.597 131.499 207.679C131.503 203.872 131.506 200.064 131.508 196.257C131.508 196.022 131.508 195.787 131.508 195.546C131.508 194.369 131.509 193.192 131.51 192.016C131.514 182.25 131.522 172.483 131.532 162.717C131.321 162.718 131.32 162.717 131.104 162.718C127.649 162.733 124.194 162.744 120.738 162.751C119.067 162.754 117.396 162.759 115.725 162.767C114.266 162.773 112.806 162.778 111.348 162.779C110.577 162.78 109.806 162.782 109.036 162.787C104.662 162.812 100.488 162.614 96.2676 161.391C96.0718 161.337 95.8756 161.284 95.6738 161.229C93.1644 160.525 90.8842 159.44 88.5771 158.249C88.2579 158.087 88.2573 158.087 87.9316 157.921C79.3852 153.443 73.2043 145.561 70.3027 136.445C69.7101 134.521 69.2252 132.569 69.1123 130.554C69.0927 130.286 69.0729 130.017 69.0527 129.741C68.9422 127.183 68.9422 127.181 69.6992 126.24C70.4729 125.462 71.4482 125.221 72.5225 125.137C72.9177 125.136 72.9185 125.136 73.3213 125.136C73.469 125.135 73.6174 125.134 73.7695 125.133C74.2624 125.131 74.7562 125.131 75.249 125.132C75.6037 125.131 75.9588 125.13 76.3135 125.129C77.277 125.126 78.2406 125.125 79.2041 125.126C80.0136 125.126 80.8233 125.125 81.6328 125.124C83.5501 125.122 85.4675 125.122 87.3848 125.123C89.3447 125.124 91.3047 125.122 93.2646 125.117C94.9584 125.113 96.6529 125.112 98.3467 125.112C99.3528 125.113 100.359 125.113 101.365 125.109C107.759 125.091 114.078 125.224 120.303 126.853C120.976 127.028 121.655 127.184 122.332 127.344C123.184 127.561 124.001 127.818 124.817 128.143C125.322 128.342 125.833 128.518 126.345 128.697C127.562 129.137 128.75 129.636 129.941 130.14C130.138 130.222 130.334 130.305 130.536 130.391C131.017 130.594 131.499 130.797 131.979 131.001C131.979 130.877 131.979 130.751 131.979 130.623C131.974 129.311 131.97 127.999 131.968 126.688C131.967 126.2 131.965 125.712 131.963 125.225C131.949 121.701 131.995 118.263 132.595 114.78C132.634 114.55 132.674 114.319 132.715 114.082C133.689 108.593 135.352 103.303 138.021 98.3916C138.149 98.1436 138.277 97.8951 138.409 97.6396C140.822 93.0221 143.919 88.8298 147.551 85.1025C147.983 84.6417 148.366 84.1433 148.76 83.6504C149.018 83.4053 149.284 83.1673 149.557 82.9385C150.07 82.5024 150.574 82.064 151.063 81.6006C154.738 78.1259 159.036 75.4122 163.498 73.0693C163.711 72.9577 163.924 72.8455 164.143 72.7305C165.476 72.0428 166.824 71.4579 168.224 70.9199C168.595 70.7668 168.967 70.6132 169.338 70.46C170.462 70.0116 171.603 69.6666 172.769 69.3428C172.958 69.2885 173.148 69.2336 173.343 69.1777C179.448 67.4565 185.465 66.9814 191.766 67.0029C192.659 67.0052 193.553 67.0033 194.447 67.002C195.941 67.0003 197.434 67.0016 198.928 67.0059C200.65 67.0108 202.373 67.0098 204.096 67.0049C205.587 67.0008 207.079 66.9996 208.57 67.002C209.456 67.0033 210.342 67.0039 211.228 67.001C212.056 66.9984 212.884 67.0007 213.712 67.0059ZM119.888 139.992C113.744 137.753 113.743 137.753 98.6074 137.857C97.1689 137.868 95.7305 137.873 94.292 137.878C91.1953 137.888 88.0986 137.904 85.002 137.925V138.371H85.4492V138.818C88.1177 143.146 92.5567 146.529 97.2568 148.389C97.4354 148.457 97.6089 148.523 97.7822 148.59C101.775 150.161 105.884 150.336 110.126 150.317C110.894 150.314 111.662 150.314 112.431 150.316C114.387 150.323 116.344 150.323 118.3 150.321C120.437 150.319 122.575 150.317 124.713 150.323C125.489 150.326 126.264 150.329 127.04 150.326C127.775 150.323 128.51 150.321 129.244 150.322C129.522 150.323 129.792 150.323 130.062 150.324C132.286 150.302 134.278 150.551 136.154 151.839C136.386 152.025 136.612 152.206 136.837 152.387C137.787 153.149 138.713 153.929 139.553 154.813C139.718 154.994 139.879 155.17 140.039 155.346C140.414 155.743 140.787 156.142 141.155 156.545C141.289 156.692 141.419 156.836 141.549 156.979C143.178 158.712 143.934 160.598 143.964 162.984C143.962 163.209 143.96 163.427 143.958 163.645C143.963 164.404 143.967 165.163 143.966 165.922C143.965 166.477 143.965 167.031 143.967 167.586C143.973 168.941 143.979 170.296 143.979 171.651C143.978 173.417 143.981 175.182 143.986 176.947C143.996 179.81 144.002 182.672 144.005 185.534C144.008 188.322 144.012 191.11 144.019 193.898C144.019 194.076 144.019 194.248 144.02 194.42C144.022 195.286 144.024 196.152 144.026 197.018C144.045 204.222 144.057 211.428 144.065 218.633C144.066 218.758 144.066 218.88 144.066 219.001H144.29C151.941 210.547 155.455 198.277 155.529 187.143C155.53 186.978 155.531 186.816 155.532 186.656C155.558 183.469 155.287 180.41 154.58 177.293C154.523 177.055 154.468 176.823 154.413 176.592C152.721 169.43 149.684 162.689 144.954 156.993C144.804 156.813 144.659 156.638 144.514 156.463C139.756 150.281 133.063 145.719 126.102 142.353C125.909 142.26 125.909 142.259 125.721 142.168C124.285 141.467 122.806 140.947 121.284 140.461C120.816 140.311 120.35 140.158 119.888 139.992ZM200.336 151.874C198.486 151.874 196.985 153.374 196.985 155.225C196.986 157.074 198.486 158.574 200.336 158.574C202.186 158.574 203.685 157.074 203.686 155.225C203.686 153.374 202.186 151.874 200.336 151.874Z" fill="white"/>
<path d="M200.333 144.054C206.5 144.054 211.5 149.053 211.5 155.221C211.5 161.388 206.5 166.388 200.333 166.389C194.165 166.389 189.165 161.388 189.165 155.221C189.165 149.053 194.166 144.054 200.333 144.054ZM200.333 151.874C198.483 151.874 196.982 153.374 196.982 155.225C196.983 157.075 198.483 158.574 200.333 158.574C202.183 158.574 203.682 157.075 203.683 155.225C203.683 153.374 202.183 151.874 200.333 151.874Z" fill="white"/>
</svg>
